<svg xmlns="http://www.w3.org/2000/svg" data-name="Layer 2" viewBox="0 0 64 64"><path d="M49.24,22.005v4.05l-2-.22v-3.05l-4.66-1.17.49-1.94,5.41,1.36A1,1,0,0,1,49.24,22.005Z"/><circle cx="17.12" cy="42.825" r="7.12"/><circle cx="43.69" cy="44.395" r="5.28" transform="rotate(-76.718 43.69 44.395)"/><path d="M34.59,26.485a1,1,0,0,1-.89-.99V14.055H14.06v12.53a1.007,1.007,0,0,1-.29.71l-3.09,3.09v5.98a9.124,9.124,0,0,1,15.55,5.97H36.71a7.27,7.27,0,0,1,13.78-.51H54V28.575Zm-6.29.45H19.47v-7.47H28.3Zm10.11,7.77h-2v-4.06h2Zm4.06,0h-2v-4.06h2Z"/></svg>