<svg id="visual" viewBox="0 0 960 540" width="960" height="540" xmlns="http://www.w3.org/2000/svg" xmlns:xlink="http://www.w3.org/1999/xlink" version="1.1"><path d="M0 410L22.8 408.3C45.7 406.7 91.3 403.3 137 405.3C182.7 407.3 228.3 414.7 274 416.5C319.7 418.3 365.3 414.7 411.2 412C457 409.3 503 407.7 548.8 405C594.7 402.3 640.3 398.7 686 406.8C731.7 415 777.3 435 823 428.3C868.7 421.7 914.3 388.3 937.2 371.7L960 355L960 541L937.2 541C914.3 541 868.7 541 823 541C777.3 541 731.7 541 686 541C640.3 541 594.7 541 548.8 541C503 541 457 541 411.2 541C365.3 541 319.7 541 274 541C228.3 541 182.7 541 137 541C91.3 541 45.7 541 22.8 541L0 541Z" fill="#CE79F2" stroke-linecap="round" stroke-linejoin="miter"></path></svg>