<svg id="visual" viewBox="0 0 960 540" width="960" height="540" xmlns="http://www.w3.org/2000/svg" xmlns:xlink="http://www.w3.org/1999/xlink" version="1.1"><path d="M633 540L634.8 527.2C636.7 514.3 640.3 488.7 654.8 463C669.3 437.3 694.7 411.7 716.7 386C738.7 360.3 757.3 334.7 745.5 308.8C733.7 283 691.3 257 659.2 231.2C627 205.3 605 179.7 610.3 154C615.7 128.3 648.3 102.7 652.8 77C657.3 51.3 633.7 25.7 621.8 12.8L610 0L960 0L960 12.8C960 25.7 960 51.3 960 77C960 102.7 960 128.3 960 154C960 179.7 960 205.3 960 231.2C960 257 960 283 960 308.8C960 334.7 960 360.3 960 386C960 411.7 960 437.3 960 463C960 488.7 960 514.3 960 527.2L960 540Z" fill="#F2A341" stroke-linecap="round" stroke-linejoin="miter"></path></svg>